# xmcd
#
# Track frame offsets:
#	150
#	19544
#	33642
#	46817
#	63948
#	80924
#	98731
#	114030
#	132015
#	148307
#	164252
#	185677
#	213423
#	227031
#
# Disc length: 3300 seconds
#
# Revision: 1
# Processed by: cddbd v1.5.2PL0 Copyright (c) Steve Scherf et al.
# Submitted via: audiograbber 1.83.01
#
DISCID=bb0ce20e
DTITLE=Toby Keith - Bullets In The Gun
DYEAR=2010
DGENRE=Country
TTITLE0=Bullets In The Gun
TTITLE1=Somewhere Else
TTITLE2=Trailerhood
TTITLE3=In A Couple Of Days
TTITLE4=Think About You All The Time
TTITLE5=Kissin' in the Rain
TTITLE6=Drive It On Home
TTITLE7=Ain't Breakin' Nothin'
TTITLE8=Is that all You Got?
TTITLE9=Get Out Of My Car
TTITLE10=11 Months and 29 Days
TTITLE11=It's Been A Long Time Leaving ( But I'll Be A Long Time Gone)
TTITLE12=Chug-a-Lug
TTITLE13=Sundown
EXTD=
EXTT0=
EXTT1=
EXTT2=
EXTT3=
EXTT4=
EXTT5=
EXTT6=
EXTT7=
EXTT8=
EXTT9=
EXTT10=
EXTT11=
EXTT12=
EXTT13=
PLAYORDER=
